:SAMPLES-PER-SECOND 30
:FRAME-RANGE 1-663
:FULLY-SPECIFIED
:DEGREES
166
root  34.6502 39.4392 101.506 -0.164436 -52.3722 0.39005
RightUpLeg  1.78526 -7.73459 -7.51463
RightLeg  -1.49327 -13.4169 0.875996
RightFoot  1.37283 -0.919892 8.33691
RightToes  2.91037e-010 0 -3.6325e-017
Spine  1.91207 0.761903 1.696
Spine1  3.5508 1.59757 -3.60539
HEad  28.9026 -14.2819 0.226668
LeftShoulder1  1.23065 0.179561 -30.9586
LeftArm  7.12938 7.26152 -29.3709
LeftForeArm  4.63417 -9.86398 -14.6826
LeftHand  0.415442 -1.53862 -6.84359
RightShoulder  10.3175 13.5863 52.8032
RightArm  11.7313 3.83402 18.1311
RightForeArm  22.5781 -1.69116 17.2845
RightHand  0.442144 4.25188 5.17846
LeftUpLeg  -1.99432 5.65708 1.93298
LeftLeg  2.01203 -4.83866 -1.78726
LeftFoot  0.784255 0.347507 -3.31694
LeftToes  -4.9116e-011 5.71383e-011 -3.31847e-011
167
root  34.686 39.4393 101.475 -0.28902 -52.352 0.499155
RightUpLeg  1.70218 -7.80643 -7.59137
RightLeg  -1.40061 -13.3587 0.870424
RightFoot  1.40239 -0.916137 8.27513
RightToes  2.91037e-010 0 -3.6325e-017
Spine  2.06381 0.796862 1.51438
Spine1  3.47035 1.56768 -3.30741
HEad  28.7516 -14.1188 0.225484
LeftShoulder1  1.2148 0.243848 -31.2031
LeftArm  7.53567 7.29759 -29.0516
LeftForeArm  4.12568 -9.97069 -14.6734
LeftHand  0.44907 -1.66187 -7.26526
RightShoulder  10.3577 13.6912 52.6882
RightArm  12.4754 3.91876 18.1186
RightForeArm  21.9117 -1.65747 17.4002
RightHand  0.44275 4.25292 5.19125
LeftUpLeg  -1.95675 5.65925 1.88475
LeftLeg  1.85302 -4.86515 -1.83269
LeftFoot  0.962438 0.343039 -3.23711
LeftToes  -4.9116e-011 5.71383e-011 -3.31847e-011
168
root  34.7209 39.4399 101.432 -0.184182 -52.2362 0.405174
RightUpLeg  1.60259 -7.75337 -7.49585
RightLeg  -1.38788 -13.5772 0.888977
RightFoot  1.46496 -0.912884 8.2056
RightToes  2.91037e-010 0 -3.6325e-017
Spine  2.34383 0.811201 1.81651
Spine1  3.1229 1.64212 -3.61015
HEad  28.6543 -14.0609 0.326481
LeftShoulder1  1.21915 0.21652 -31.0249
LeftArm  7.5573 7.44959 -29.1483
LeftForeArm  4.13675 -9.90098 -14.714
LeftHand  0.431948 -1.544 -7.11421
RightShoulder  10.3239 13.6033 52.7837
RightArm  12.9334 3.92689 18.1182
RightForeArm  21.4855 -1.58535 17.4624
RightHand  0.440841 4.28396 5.03332
LeftUpLeg  -2.10032 5.79345 2.00662
LeftLeg  1.88727 -5.10822 -1.95293
LeftFoot  1.03773 0.341186 -3.22129
LeftToes  -4.9116e-011 5.71383e-011 -3.31847e-011
169
root  34.755 39.4407 101.393 -0.19305 -52.1463 0.41974
RightUpLeg  1.54884 -7.75191 -7.48491
RightLeg  -1.42647 -13.6392 0.903631
RightFoot  1.52873 -0.912955 8.17461
RightToes  2.91037e-010 0 -3.6325e-017
Spine  2.59364 0.840011 1.84094
Spine1  2.89339 1.66177 -3.56984
HEad  28.3858 -14.0932 0.495728
LeftShoulder1  1.22884 0.19278 -31.0521
LeftArm  7.53814 7.53329 -29.1472
LeftForeArm  4.22421 -9.80148 -14.7685
LeftHand  0.436144 -1.56458 -7.16112
RightShoulder  10.3203 13.609 52.7489
RightArm  13.5669 3.90603 18.1245
RightForeArm  20.853 -1.30473 17.5151
RightHand  0.444487 4.21715 5.08633
LeftUpLeg  -2.14418 5.93769 2.087
LeftLeg  1.79484 -5.3242 -2.12116
LeftFoot  1.18035 0.332767 -3.09875
LeftToes  -4.9116e-011 5.71383e-011 -3.31847e-011
170
root  34.7912 39.4416 101.361 -0.270815 -52.0376 0.459821
RightUpLeg  1.58598 -7.79118 -7.52047
RightLeg  -1.49501 -13.7211 0.942768
RightFoot  1.57886 -0.917596 8.20383
RightToes  2.91037e-010 0 -3.6325e-017
Spine  2.86278 0.83744 1.93137
Spine1  2.71435 1.68158 -3.66631
HEad  28.1368 -13.8216 0.436382
LeftShoulder1  1.23299 0.173439 -30.9608
LeftArm  7.52139 7.5783 -29.2778
LeftForeArm  4.45069 -9.60659 -14.8704
LeftHand  0.429552 -1.5974 -6.91747
RightShoulder  10.3326 13.6182 52.7819
RightArm  13.5074 3.93925 18.1484
RightForeArm  21.0069 -1.27681 17.4949
RightHand  0.450406 4.23451 5.14713
LeftUpLeg  -2.13356 6.01428 2.11308
LeftLeg  1.70328 -5.47514 -2.22844
LeftFoot  1.281 0.334153 -3.09189
LeftToes  -4.9116e-011 5.71383e-011 -3.31847e-011
171
root  34.8276 39.4424 101.322 -0.176723 -51.9388 0.384942
RightUpLeg  1.49763 -7.79366 -7.46638
RightLeg  -1.52326 -13.8907 0.991932
RightFoot  1.62744 -0.918463 8.16534
RightToes  2.91037e-010 0 -3.6325e-017
Spine  2.96821 0.882486 2.00949
Spine1  2.66371 1.7168 -3.59577
HEad  27.9159 -13.6759 0.431706
LeftShoulder1  1.24991 0.133946 -31.0301
LeftArm  7.56627 7.4271 -29.2817
LeftForeArm  4.60613 -9.41014 -14.9782
LeftHand  0.430155 -1.57593 -7.09992
RightShoulder  10.3534 13.6988 52.6444
RightArm  13.7199 3.93851 18.2393
RightForeArm  20.614 -1.11964 17.5051
RightHand  0.454708 4.19111 5.22543
LeftUpLeg  -2.3301 6.1159 2.16363
LeftLeg  1.84548 -5.60832 -2.34908
LeftFoot  1.49026 0.278597 -2.5583
LeftToes  -4.9116e-011 5.71383e-011 -3.31847e-011
172
root  34.8534 39.4429 101.29 -0.124228 -51.8239 0.259068
RightUpLeg  1.61352 -7.80714 -7.41167
RightLeg  -1.72863 -14.0241 1.12196
RightFoot  1.73491 -0.924961 8.1607
RightToes  2.91037e-010 0 -3.6325e-017
Spine  2.97661 0.930289 1.90166
Spine1  2.83308 1.68713 -3.20531
HEad  27.6333 -13.3237 0.180743
LeftShoulder1  1.25556 0.14076 -31.2748
LeftArm  7.91609 7.12278 -29.2639
LeftForeArm  4.26812 -9.26439 -15.1083
LeftHand  0.42657 -1.49481 -7.09749
RightShoulder  10.3841 13.8829 52.2518
RightArm  12.9171 3.95533 18.4859
RightForeArm  19.6392 -1.05174 17.4778
RightHand  0.51305 4.24664 5.89191
LeftUpLeg  -2.43094 6.11741 2.23168
LeftLeg  1.99089 -5.71765 -2.32454
LeftFoot  1.44601 0.280736 -2.58392
LeftToes  -4.9116e-011 5.71383e-011 -3.31847e-011
173
root  34.8797 39.4436 101.27 -0.239559 -51.778 0.234885
RightUpLeg  1.89872 -7.86915 -7.45415
RightLeg  -2.0874 -13.9806 1.2632
RightFoot  1.84545 -0.949991 8.31399
RightToes  2.91037e-010 0 -3.6325e-017
Spine  3.14689 1.00523 2.29917
Spine1  2.83307 1.87837 -3.67298
HEad  27.2662 -12.869 0.139591
LeftShoulder1  1.29536 0.0112191 -31.0298
LeftArm  6.86306 6.77034 -29.6268
LeftForeArm  5.24555 -8.48554 -15.4046
LeftHand  0.425011 -1.43559 -7.12054
RightShoulder  10.4391 14.016 52.1316
RightArm  15.0287 4.16758 18.7794
RightForeArm  15.8949 0.258814 17.6397
RightHand  0.555903 4.16166 6.469
LeftUpLeg  -2.36867 6.09149 2.23781
LeftLeg  2.04142 -5.77136 -2.29542
LeftFoot  1.46063 0.278682 -2.56042
LeftToes  -4.9116e-011 5.71383e-011 -3.31847e-011
174
root  34.9054 39.448 101.243 -0.274826 -51.9305 0.127556
RightUpLeg  2.19363 -7.79524 -7.37078
RightLeg  -2.60858 -13.9277 1.36809
RightFoot  2.08783 -0.967888 8.32844
RightToes  2.91037e-010 0 -3.6325e-017
Spine  2.69504 1.08875 2.38486
Spine1  3.64964 1.97061 -3.59432
HEad  26.572 -11.8759 0.0600269
LeftShoulder1  1.31775 -0.055162 -30.9677
LeftArm  5.93567 6.2386 -30.0487
LeftForeArm  5.99352 -7.75902 -15.6669
LeftHand  0.426413 -1.44291 -7.13598
RightShoulder  11.1353 15.3736 51.6099
RightArm  15.8592 5.19015 19.2861
RightForeArm  14.356 1.10639 17.6083
RightHand  0.579659 4.42927 6.55415
LeftUpLeg  -2.26363 6.21728 2.36551
LeftLeg  2.02404 -5.74439 -2.34489
LeftFoot  1.47709 0.280335 -2.59792
LeftToes  -4.9116e-011 5.71383e-011 -3.31847e-011
175
root  34.9464 39.4512 101.222 -0.579473 -52.4384 0.187347
RightUpLeg  2.50894 -7.7724 -7.41078
RightLeg  -3.05349 -13.5259 1.38138
RightFoot  2.34261 -1.01071 8.5421
RightToes  2.91037e-010 0 -3.6325e-017
Spine  2.84043 1.28017 2.86794
Spine1  3.73493 2.33332 -4.249
HEad  26.3895 -10.8238 0.26809
LeftShoulder1  1.34763 -0.163159 -30.6913
LeftArm  5.68839 5.66147 -30.2317
LeftForeArm  6.48719 -7.0677 -15.9476
LeftHand  0.44832 -1.4988 -7.44155
RightShoulder  11.9405 16.7152 51.6549
RightArm  15.4849 7.20874 19.5292
RightForeArm  12.4488 3.23059 17.0836
RightHand  0.564631 4.21276 6.53608
LeftUpLeg  -1.91846 6.36769 2.42696
LeftLeg  1.89663 -5.45595 -2.42858
LeftFoot  1.56065 0.277142 -2.53512
LeftToes  -4.9116e-011 5.71383e-011 -3.31847e-011
176
root  35.0004 39.4529 101.205 -0.797835 -53.0933 0.238028
RightUpLeg  2.60801 -7.69481 -7.41175
RightLeg  -3.33966 -12.994 1.30765
RightFoot  2.59382 -1.0454 8.6837
RightToes  2.91037e-010 0 -3.6325e-017
Spine  2.92874 1.47722 3.12051
Spine1  3.80045 2.60053 -4.47808
HEad  25.6539 -9.55045 0.292913
LeftShoulder1  1.33024 -0.111919 -30.7308
LeftArm  5.69475 5.24859 -30.3622
LeftForeArm  6.60564 -6.88743 -16.0291
LeftHand  0.445463 -1.48992 -7.40388
RightShoulder  12.8291 18.4028 51.2106
RightArm  15.7286 9.92419 20.4183
RightForeArm  8.16576 7.26839 15.6842
RightHand  0.471532 3.59101 5.83596
LeftUpLeg  -1.67462 6.45098 2.44127
LeftLeg  1.79122 -4.88329 -2.44353
LeftFoot  1.56389 0.287854 -2.62937
LeftToes  -4.9116e-011 5.71383e-011 -3.31847e-011
